<svg id="Layer_1" data-name="Layer 1" xmlns="http://www.w3.org/2000/svg" viewBox="0 0 676.05 279.74"><defs><style>.cls-1{fill:#fff;}</style></defs><title>logo</title><path class="cls-1" d="M258.06,133.56H228.62V104.12a13,13,0,0,0-13-13H146.37a13,13,0,0,0-13,13v29.44H103.94a13,13,0,0,0-13,13v69.26a13,13,0,0,0,13,13h29.44v29.44a13,13,0,0,0,13,13h69.26a13,13,0,0,0,13-13V228.8h29.44a13,13,0,0,0,13-13V146.55A13,13,0,0,0,258.06,133.56ZM257.19,215H228.62V161.26H214.77v96.11H147.23V228.8h53.68V215h-96.1V147.41h28.57v53.68h13.85V105h67.54v28.57H161.09v13.85h96.1Z" transform="translate(-90.95 8.52)"/><text x="-90.95" y="8.52"/></svg>